<?xml version="1.0" encoding="UTF-8" standalone="no"?>
<!DOCTYPE svg PUBLIC "-//W3C//DTD SVG 1.1//EN"
 "http://www.w3.org/Graphics/SVG/1.1/DTD/svg11.dtd">
<!-- Generated by graphviz version 9.0.0 (0)
 -->
<!-- Title: finite_state_machine Pages: 1 -->
<svg width="252pt" height="85pt"
 viewBox="0.00 0.00 251.60 85.00" xmlns="http://www.w3.org/2000/svg" xmlns:xlink="http://www.w3.org/1999/xlink">
<g id="graph0" class="graph" transform="scale(1 1) rotate(0) translate(4 81)">
<title>finite_state_machine</title>
<polygon fill="white" stroke="none" points="-4,4 -4,-81 247.6,-81 247.6,4 -4,4"/>
<!-- 0 -->
<g id="node1" class="node">
<title>0</title>
<ellipse fill="none" stroke="black" cx="62.6" cy="-22" rx="18" ry="18"/>
<ellipse fill="none" stroke="black" cx="62.6" cy="-22" rx="22" ry="22"/>
<text text-anchor="middle" x="62.6" y="-16.2" font-family="Helvetica,Arial,sans-serif" font-size="14.00">0</text>
</g>
<!-- 0&#45;&gt;0 -->
<g id="edge2" class="edge">
<title>0&#45;&gt;0</title>
<path fill="none" stroke="black" d="M55.19,-42.99C54.28,-53.09 56.75,-62 62.6,-62 66.08,-62 68.36,-58.86 69.45,-54.19"/>
<polygon fill="black" stroke="black" points="72.93,-54.66 69.93,-44.5 65.94,-54.31 72.93,-54.66"/>
<text text-anchor="middle" x="62.6" y="-63.7" font-family="Helvetica,Arial,sans-serif" font-size="14.00">0</text>
</g>
<!-- 1 -->
<g id="node3" class="node">
<title>1</title>
<ellipse fill="none" stroke="black" cx="146.1" cy="-22" rx="18" ry="18"/>
<text text-anchor="middle" x="146.1" y="-16.2" font-family="Helvetica,Arial,sans-serif" font-size="14.00">1</text>
</g>
<!-- 0&#45;&gt;1 -->
<g id="edge3" class="edge">
<title>0&#45;&gt;1</title>
<path fill="none" stroke="black" d="M85.01,-22C94.57,-22 105.98,-22 116.27,-22"/>
<polygon fill="black" stroke="black" points="116.16,-25.5 126.16,-22 116.16,-18.5 116.16,-25.5"/>
<text text-anchor="middle" x="106.35" y="-23.7" font-family="Helvetica,Arial,sans-serif" font-size="14.00">1</text>
</g>
<!-- entry -->
<g id="node2" class="node">
<title>entry</title>
<ellipse fill="black" stroke="black" cx="1.8" cy="-22" rx="1.8" ry="1.8"/>
</g>
<!-- entry&#45;&gt;0 -->
<g id="edge1" class="edge">
<title>entry&#45;&gt;0</title>
<path fill="none" stroke="black" d="M3.82,-22C7.09,-22 17.76,-22 29.06,-22"/>
<polygon fill="black" stroke="black" points="28.8,-25.5 38.8,-22 28.8,-18.5 28.8,-25.5"/>
</g>
<!-- 1&#45;&gt;0 -->
<g id="edge5" class="edge">
<title>1&#45;&gt;0</title>
<path fill="none" stroke="black" d="M130.79,-12.13C124.7,-8.51 117.34,-4.84 110.1,-3 103.87,-1.42 97.36,-2.32 91.27,-4.42"/>
<polygon fill="black" stroke="black" points="89.88,-1.2 82.25,-8.55 92.8,-7.56 89.88,-1.2"/>
<text text-anchor="middle" x="106.35" y="-4.7" font-family="Helvetica,Arial,sans-serif" font-size="14.00">1</text>
</g>
<!-- 2 -->
<g id="node4" class="node">
<title>2</title>
<ellipse fill="none" stroke="black" cx="225.6" cy="-22" rx="18" ry="18"/>
<text text-anchor="middle" x="225.6" y="-16.2" font-family="Helvetica,Arial,sans-serif" font-size="14.00">2</text>
</g>
<!-- 1&#45;&gt;2 -->
<g id="edge4" class="edge">
<title>1&#45;&gt;2</title>
<path fill="none" stroke="black" d="M164.3,-22C173.57,-22 185.24,-22 195.85,-22"/>
<polygon fill="black" stroke="black" points="195.67,-25.5 205.67,-22 195.67,-18.5 195.67,-25.5"/>
<text text-anchor="middle" x="185.85" y="-23.7" font-family="Helvetica,Arial,sans-serif" font-size="14.00">0</text>
</g>
<!-- 2&#45;&gt;1 -->
<g id="edge6" class="edge">
<title>2&#45;&gt;1</title>
<path fill="none" stroke="black" d="M211.25,-10.84C203.08,-5.35 192.28,-0.41 182.1,-3 178.48,-3.92 174.83,-5.3 171.33,-6.9"/>
<polygon fill="black" stroke="black" points="169.96,-3.66 162.75,-11.43 173.23,-9.85 169.96,-3.66"/>
<text text-anchor="middle" x="185.85" y="-4.7" font-family="Helvetica,Arial,sans-serif" font-size="14.00">0</text>
</g>
<!-- 2&#45;&gt;2 -->
<g id="edge7" class="edge">
<title>2&#45;&gt;2</title>
<path fill="none" stroke="black" d="M218.56,-39.04C217.12,-48.86 219.47,-58 225.6,-58 229.15,-58 231.43,-54.94 232.44,-50.47"/>
<polygon fill="black" stroke="black" points="235.94,-50.61 232.62,-40.55 228.94,-50.49 235.94,-50.61"/>
<text text-anchor="middle" x="225.6" y="-59.7" font-family="Helvetica,Arial,sans-serif" font-size="14.00">1</text>
</g>
</g>
</svg>
